# xmcd
#
# Track frame offsets:
#	150
#	757
#	18891
#	33905
#	50814
#	63358
#	80648
#	96689
#	111507
#	126702
#	141150
#	156349
#	172766
#	173348
#
# Disc length: 2462 seconds
#
# Revision: 0
# Processed by: cddbd v1.5.2PL0 Copyright (c) Steve Scherf et al.
# Submitted via: audiograbber 1.83.01
#
DISCID=b6099c0e
DTITLE=Country Company - My Kind Of Country
DYEAR=1900
DGENRE=Country
TTITLE0=Laba #1
TTITLE1=My Kind Of Country
TTITLE2=If The Devil Ain´t Married
TTITLE3=Is This Love
TTITLE4=One More Night
TTITLE5=Country Life (From The German Corner)
TTITLE6=Someone Who Likes Me
TTITLE7=Born Country
TTITLE8=Born Beside The Jukebox
TTITLE9=Gettin´ Even
TTITLE10=My Best Friend´s Girl
TTITLE11=Wir Brauchen Dich
TTITLE12=Country Roads
TTITLE13=Laba #2
EXTD=
EXTT0=
EXTT1=
EXTT2=
EXTT3=
EXTT4=
EXTT5=
EXTT6=
EXTT7=
EXTT8=
EXTT9=
EXTT10=
EXTT11=
EXTT12=
EXTT13=
PLAYORDER=
